<svg id="Capa_1" enable-background="new 0 0 512 512" height="512" viewBox="0 0 512 512" width="512" xmlns="http://www.w3.org/2000/svg"><g><g><path d="m253.001 504.5c-7.615 0-15.224-2.663-21.096-7.97l-112.039-101.263c-5.967-5.394-9.388-12.978-9.388-20.807v-338.175c0-15.872 13.674-28.785 30.481-28.785h150.858c16.808 0 30.482 12.913 30.482 28.785v282.31c0 6.899-2.613 13.57-7.358 18.784l-35.629 53.091c-5.866 6.443-14.381 10.073-23.446 9.997-9.016-.09-17.467-3.892-23.185-10.431l-39.216-49.314c-4.496-5.141-6.973-11.659-6.973-18.353v-210.569c0-10.252 8.311-18.563 18.563-18.563s18.563 8.311 18.563 18.563v207.005l32.66 41.817 28.896-45.693v-270.304h-137.57v325.669l105.477 95.332 111.317-96.307v-177.645c0-10.252 8.311-18.563 18.563-18.563s18.563 8.311 18.563 18.563v181.922c0 8.067-3.598 15.806-9.871 21.234l-118.045 102.127c-5.818 5.034-13.216 7.543-20.607 7.543z" fill="#a1f2c0"/></g><g><path d="m254.25 7.734c16.808 0 30.482 12.913 30.482 28.785v8.107h.442v270.303l-.442.699v3.201c0 6.899-2.613 13.57-7.358 18.784l-35.629 53.091c-1.275 1.4-2.681 2.659-4.185 3.785 5.193 3.782 11.592 5.911 18.307 5.978 9.065.077 17.581-3.554 23.446-9.997l35.629-53.091c4.745-5.214 7.358-11.885 7.358-18.784v-282.311c0-15.872-13.674-28.785-30.482-28.785z" fill="#83e8a3"/></g><g><path d="m382.96 165.612c-14.371 0-26.063 11.691-26.063 26.063v174.215l-103.708 89.724-98.085-88.651v-314.838h122.57v129.308c0 4.142 3.358 7.5 7.5 7.5s7.5-3.358 7.5-7.5v-136.808c0-4.142-3.358-7.5-7.5-7.5h-137.57c-4.142 0-7.5 3.358-7.5 7.5v325.668c0 2.121.898 4.142 2.471 5.564l105.477 95.331c2.809 2.54 7.071 2.586 9.936.108l111.316-96.307c1.646-1.425 2.593-3.495 2.593-5.672v-177.643c0-6.1 4.963-11.063 11.063-11.063s11.063 4.962 11.063 11.063v181.922c0 5.887-2.653 11.559-7.278 15.562l-118.044 102.127c-4.26 3.686-9.836 5.715-15.7 5.715-6.056 0-11.762-2.143-16.067-6.034l-112.038-101.262c-4.396-3.975-6.918-9.531-6.918-15.244v-202.075c0-4.142-3.358-7.5-7.5-7.5s-7.5 3.358-7.5 7.5v202.075c0 9.946 4.322 19.558 11.859 26.372l112.039 101.263c7.068 6.388 16.346 9.906 26.125 9.906 9.468 0 18.529-3.328 25.515-9.372l118.044-102.127c7.92-6.854 12.463-16.661 12.463-26.905v-181.923c-.001-14.371-11.692-26.062-26.063-26.062z"/><path d="m110.478 149.885c4.142 0 7.5-3.358 7.5-7.5v-106.1c0-11.736 10.31-21.285 22.981-21.285h150.858c12.672 0 22.982 9.548 22.982 21.285v282.31c0 5.028-1.919 9.907-5.405 13.736-.248.272-.476.563-.681.869l-35.297 52.597c-4.362 4.571-10.615 7.172-17.26 7.172-.071 0-.143-.001-.215-.001-6.825-.068-13.197-2.89-17.508-7.747l-39.098-49.167c-.073-.092-.148-.182-.225-.27-3.301-3.774-5.119-8.538-5.119-13.415v-210.569c0-6.1 4.963-11.063 11.063-11.063s11.063 4.963 11.063 11.063v207.004c0 1.673.56 3.298 1.589 4.617l32.66 41.817c1.501 1.923 3.846 2.997 6.282 2.874 2.437-.121 4.663-1.42 5.967-3.482l28.896-45.693c.758-1.2 1.161-2.59 1.161-4.009v-103.494c0-4.142-3.358-7.5-7.5-7.5s-7.5 3.358-7.5 7.5v101.322l-22.041 34.854-24.515-31.388v-204.422c0-14.371-11.692-26.063-26.063-26.063s-26.063 11.692-26.063 26.063v210.569c0 8.449 3.09 16.663 8.706 23.15l39.112 49.185c.073.092.148.182.225.27 7.124 8.145 17.604 12.881 28.768 12.993.115.001.228.001.343.001 11.05 0 21.5-4.525 28.713-12.448.249-.273.476-.563.682-.87l35.338-52.658c5.757-6.532 8.921-14.817 8.921-23.396v-282.311c.001-20.008-17.037-36.285-37.981-36.285h-150.858c-20.943 0-37.981 16.277-37.981 36.285v106.1c0 4.142 3.357 7.5 7.5 7.5z"/></g><g id="XMLID_1_"><path d="" fill="none" stroke="#687c92" stroke-miterlimit="10"/></g></g></svg>